PathFileType	4	(X/Y/Z)	C:/Users/beibeiliu/ov580/test_trc\sequence.16_training_dense_left.trc
DataRate	CameraRate	NumFrames	NumMarkers	Units	OrigDataRate	OrigDataStartFrame	OrigNumFrames
120	120	8	19	mm	120	1	56
Frame#	Time	ThumbCMC			ThumbMCP			ThumbIP			ThumbTip			IndexMCP			IndexPIP			IndexTip			MiddleMCP			MiddlePIP			MiddleTip			RingMCP			RingPIP			RingTip			PinkyMCP			PinkyPIP			PinkyTip			BackHand1			BackHand2			BackHand3	
		X0	Y0	Z0	X1	Y1	Z1	X2	Y2	Z2	X3	Y3	Z3	X4	Y4	Z4	X5	Y5	Z5	X6	Y6	Z6	X7	Y7	Z7	X8	Y8	Z8	X9	Y9	Z9	X10	Y10	Z10	X11	Y11	Z11	X12	Y12	Z12	X13	Y13	Z13	X14	Y14	Z14	X15	Y15	Z15	X16	Y16	Z16	X17	Y17	Z17	X18	Y18	Z18	
0	0	-195.013	22.864	122.121	-166.939	24.32	95.1772	-155.021	19.2759	67.3567	-154.822	-13.7861	55.1769	-214.519	2.73691	53.9931	-204.84	7.68194	28.3147	-183.669	12.6483	4.13505	-213.431	-17.3941	48.9664	-208.305	-19.1019	20.086	-194.153	-16.708	-7.38747	-201.81	-32.3555	51.4165	-194.447	-33.6836	26.7548	-175.843	-25.2981	4.16262	-184.357	-44.7231	62.5305	-171.785	-36.9965	40.8283	-152.088	-11.7273	37.6143	-208.28	-36.8077	101.026	-208.854	-37.6263	135.693	-223.348	-9.99228	116.632	
1	0.00833333	-190.061	29.8035	119.819	-163.44	34.0445	94.2522	-153.48	22.6978	70.8627	-151.516	-5.42808	58.5091	-208.765	12.3315	51.1141	-196.023	15.9336	23.5895	-174.375	18.9452	3.80052	-209.824	-7.60678	44.7112	-203.943	-9.2518	20.6268	-185.26	-8.54604	-7.72693	-198.132	-28.3623	51.6516	-189.687	-24.5174	25.2567	-165.552	-16.387	1.36397	-183.776	-37.2317	65.1721	-163.914	-29.4044	39.0603	-142.773	-10.7477	40.8844	-206.402	-29.7069	103.317	-210.506	-27.9334	131.601	-219.4	1.66429	113.377	
2	0.0166667	-186.627	34.348	121.556	-161.491	38.5683	97.4302	-149.171	26.7141	67.3335	-149.969	2.611	61.5222	-205.789	22.8651	46.5892	-193.445	21.1728	25.0897	-174.463	26.3282	5.48249	-207.468	-4.67871	47.4289	-200.136	-4.6592	18.9917	-182.853	-2.12257	-6.54932	-198.713	-19.1883	52.6829	-184.876	-20.2516	21.5072	-161.969	-15.3456	3.28302	-183.878	-35.7578	62.5598	-161.899	-28.9307	41.0762	-140.935	-9.2431	46.4204	-207.441	-25.5679	102.263	-209.223	-21.513	130.919	-216.615	6.14704	115.662	
3	0.025	-182.097	40.3337	118.169	-157.69	39.1134	96.4987	-146.713	29.3908	70.7941	-147.058	6.06503	61.3459	-201.96	26.7947	48.653	-189.428	32.125	22.8716	-170.214	27.1324	8.15751	-205.774	3.80698	49.2266	-197.309	1.24535	17.7169	-179.505	0.751125	-6.20559	-197.868	-13.759	50.1877	-184.294	-16.5965	22.8065	-165.302	-11.4073	6.10434	-184.012	-27.5399	64.3886	-163.701	-22.9398	40.8588	-137.224	-7.30743	46.5556	-206.486	-18.6393	99.5974	-208.329	-20.7714	130.142	-214.606	12.8959	113.603	
4	0.0333333	-173.244	38.0548	126.335	-147.556	39.8392	98.8341	-135.846	32.4676	74.4495	-139.972	5.33599	61.4417	-194.611	36.4877	55.6998	-183.199	37.7098	30.7205	-162.301	38.4357	11.3469	-200.084	13.2556	46.5082	-189.699	12.4795	18.7576	-175.586	11.1189	-2.838	-190.424	-11.402	53.0615	-178.423	-7.75429	23.5408	-154.889	-5.40607	6.27267	-178.42	-26.6843	62.6412	-160.926	-17.2846	43.4605	-131.324	-4.7381	48.5383	-202.857	-14.4754	101.971	-204.859	-11.1502	130.619	-206.183	17.1998	116.596	
5	0.0416667	-166.933	40.22	126.332	-141.331	40.5817	104.176	-131.205	31.4451	76.6074	-133.575	7.38511	63.5489	-187.376	41.56	60.8511	-172.166	39.7876	32.4497	-154.689	42.654	16.1253	-191.658	14.3397	50.7308	-184.316	17.3075	24.4991	-167.313	14.5451	-0.0763327	-184.094	-6.59017	55.457	-171.141	-4.23314	26.5853	-151.091	-0.91296	10.2355	-174.677	-19.2598	65.8934	-157.977	-12.5187	45.9279	-127.454	-1.75176	49.7456	-197.204	-8.17042	108.064	-198.66	-11.2321	134.843	-200.716	23.1963	121.427	
6	0.05	-166.088	46.6107	129.021	-138.778	48.1398	105.97	-127.875	39.5983	84.612	-129.239	17.4023	67.8766	-183.302	40.8312	57.5395	-172.465	46.9193	37.7756	-152.639	45.2324	17.6607	-186.527	16.8352	51.2908	-178.921	21.4359	28.1423	-159.232	22.2468	0.538289	-179.285	1.22406	59.1266	-165.993	0.414182	30.9806	-142.342	9.00548	10.5117	-168.55	-18.0247	66.6964	-148.545	-8.15469	45.0931	-122.943	4.33315	46.0654	-191.321	-4.54241	109.529	-195.159	-10.8473	137.277	-200.098	21.6408	123.524	
7	0.0583333	-170.31	47.4663	134.259	-142.142	52.5138	111.221	-128.132	48.1632	82.2496	-124.373	27.133	65.5183	-185.518	39.8591	58.5243	-171.445	46.1915	33.705	-154.831	43.3608	16.5648	-183.793	17.359	51.3415	-172.351	19.9942	27.7146	-146.836	27.8849	3.6885	-175.751	0.385239	57.8584	-158.028	-1.71914	32.0416	-135.11	7.44447	17.5328	-164.83	-18.9046	65.3273	-148.129	-11.8283	47.1874	-119.462	4.95897	42.5377	-189.533	-11.2046	109.026	-194.179	-11.8342	135.334	-202.32	22.6471	122.127	
